<svg width="480" height="1170" viewBox="0 0 480 1170" fill="none" xmlns="http://www.w3.org/2000/svg">
<path d="M480 128V336C480 433.05 401.05 512 304 512H266.28C212.86 512 162.58 491.2 124.88 453.42L11.78 340.32C3.906 332.5 0 322.2 0 312C0 290.7 17.15 272 40 272C50.23 272 60.47 275.906 68.28 283.72L128 343.4V64C128 46.33 142.33 32 160 32C177.67 32 192 46.33 192 64L192.073 240C192.1 248.8 199.2 256 208 256C216.8 256 224.07 248.836 224.07 240L224 32C224 14.33 238.33 0 256 0C273.67 0 288 14.33 288 32L288.048 240C288.048 248.836 295.159 256 303.998 256C312.837 256 320 248.8 320 240V64C320 46.33 334.33 32 352 32C369.67 32 384 46.33 384 64L384.073 240C384.073 248.836 391.164 256 400.003 256C408.842 256 416 248.8 416 240V128C416 110.33 430.33 96 448 96C465.67 96 480 110.3 480 128Z" fill="#B7B4A4"/>
<path d="M16.0007 978C16.0007 995.7 29.4007 1010 47.1007 1010H353.801L248.401 1115.4C235.901 1127.9 235.901 1148.15 248.401 1160.65C254.701 1166.9 262.901 1170 271.101 1170C279.301 1170 287.481 1166.88 293.721 1160.62L453.721 1000.62C466.221 988.125 466.221 967.875 453.721 955.375L293.721 795.375C281.221 782.875 260.971 782.875 248.471 795.375C235.971 807.875 235.971 828.125 248.471 840.625L353.801 946H47.1007C29.4007 946 16.0007 960.3 16.0007 978Z" fill="#B7B4A4"/>
</svg>
