<svg width="512" height="1083" viewBox="0 0 512 1083" fill="none" xmlns="http://www.w3.org/2000/svg">
<path d="M502.595 976.605L406.595 1072.61C400.395 1078.91 392.195 1082.01 383.995 1082.01C375.795 1082.01 367.615 1078.88 361.375 1072.63C348.875 1060.13 348.875 1039.88 361.375 1027.38L402.795 986.005H109.295L150.675 1027.39C163.175 1039.89 163.175 1060.14 150.675 1072.64C144.395 1078.91 136.195 1082.01 127.995 1082.01C119.795 1082.01 111.615 1078.88 105.375 1072.63L9.375 976.63C-3.125 964.13 -3.125 943.88 9.375 931.38L105.375 835.38C117.875 822.88 138.125 822.88 150.625 835.38C163.125 847.88 163.125 868.13 150.625 880.63L109.295 922.005H402.795L361.415 880.625C348.915 868.125 348.915 847.875 361.415 835.375C373.915 822.875 394.165 822.875 406.665 835.375L502.665 931.375C515.095 943.905 515.095 964.105 502.595 976.605Z" fill="#B7B4A4"/>
<path d="M496 128V336C496 433.05 417.05 512 320 512H282.28C228.86 512 178.58 491.2 140.88 453.42L27.78 340.32C19.906 332.5 16 322.2 16 312C16 290.7 33.15 272 56 272C66.23 272 76.47 275.906 84.28 283.72L144 343.4V64C144 46.33 158.33 32 176 32C193.67 32 208 46.33 208 64L208.073 240C208.1 248.8 215.2 256 224 256C232.8 256 240.07 248.836 240.07 240L240 32C240 14.33 254.33 0 272 0C289.67 0 304 14.33 304 32L304.048 240C304.048 248.836 311.159 256 319.998 256C328.837 256 336 248.8 336 240V64C336 46.33 350.33 32 368 32C385.67 32 400 46.33 400 64L400.073 240C400.073 248.836 407.164 256 416.003 256C424.842 256 432 248.8 432 240V128C432 110.33 446.33 96 464 96C481.67 96 496 110.3 496 128Z" fill="#B7B4A4"/>
</svg>
