<svg width="480" height="1170" viewBox="0 0 480 1170" fill="none" xmlns="http://www.w3.org/2000/svg">
<path d="M480 128V336C480 433.05 401.05 512 304 512H266.28C212.86 512 162.58 491.2 124.88 453.42L11.78 340.32C3.906 332.5 0 322.2 0 312C0 290.7 17.15 272 40 272C50.23 272 60.47 275.906 68.28 283.72L128 343.4V64C128 46.33 142.33 32 160 32C177.67 32 192 46.33 192 64L192.073 240C192.1 248.8 199.2 256 208 256C216.8 256 224.07 248.836 224.07 240L224 32C224 14.33 238.33 0 256 0C273.67 0 288 14.33 288 32L288.048 240C288.048 248.836 295.159 256 303.998 256C312.837 256 320 248.8 320 240V64C320 46.33 334.33 32 352 32C369.67 32 384 46.33 384 64L384.073 240C384.073 248.836 391.164 256 400.003 256C408.842 256 416 248.8 416 240V128C416 110.33 430.33 96 448 96C465.67 96 480 110.3 480 128Z" fill="#B7B4A4"/>
<path d="M463.095 978C463.095 995.7 449.695 1010 431.995 1010H125.295L230.695 1115.4C243.195 1127.9 243.195 1148.15 230.695 1160.65C224.395 1166.9 216.195 1170 207.995 1170C199.795 1170 191.615 1166.88 185.375 1160.62L25.375 1000.62C12.875 988.125 12.875 967.875 25.375 955.375L185.375 795.375C197.875 782.875 218.125 782.875 230.625 795.375C243.125 807.875 243.125 828.125 230.625 840.625L125.295 946H431.995C449.695 946 463.095 960.3 463.095 978Z" fill="#B7B4A4"/>
</svg>
