<svg width="466" height="560" viewBox="0 0 466 560" fill="none" xmlns="http://www.w3.org/2000/svg">
<path d="M415.595 326.6C409.395 332.9 401.195 336 392.995 336C384.795 336 376.615 332.875 370.375 326.625L264.995 221.3V528C264.995 545.69 250.665 559.1 233.895 559.1C217.125 559.1 200.995 545.7 200.995 528V221.3L95.625 326.6C83.125 339.1 62.875 339.1 50.375 326.6C37.875 314.1 37.875 293.85 50.375 281.35L210.375 121.35C222.875 108.85 243.125 108.85 255.625 121.35L415.625 281.35C428.095 293.9 428.095 314.1 415.595 326.6Z" fill="#B7B4A4"/>
<rect width="466" height="63" rx="31.5" fill="#B7B4A4"/>
</svg>
