<svg width="466" height="560" viewBox="0 0 466 560" fill="none" xmlns="http://www.w3.org/2000/svg">
<path d="M415.595 232.5C409.395 226.2 401.195 223.1 392.995 223.1C384.795 223.1 376.615 226.225 370.375 232.475L264.995 337.8V31.1C264.995 13.41 250.665 0 233.895 0C217.125 0 200.995 13.4 200.995 31.1V337.8L95.625 232.5C83.125 220 62.875 220 50.375 232.5C37.875 245 37.875 265.25 50.375 277.75L210.375 437.75C222.875 450.25 243.125 450.25 255.625 437.75L415.625 277.75C428.095 265.2 428.095 245 415.595 232.5Z" fill="#B7B4A4"/>
<rect width="466" height="63" rx="31.5" transform="matrix(1 0 0 -1 0 559.1)" fill="#B7B4A4"/>
</svg>
