<svg width="31" height="20" viewBox="0 0 31 20" fill="none" xmlns="http://www.w3.org/2000/svg">
<path d="M11.25 0H2.5C1.11914 0 0 1.11914 0 2.5V17.5C0 18.8809 1.11914 20 2.5 20H11.25C12.6309 20 13.75 18.8809 13.75 17.5V2.5C13.75 1.11914 12.6289 0 11.25 0ZM6.875 18.75C6.18164 18.75 5.625 18.1934 5.625 17.5C5.625 16.8066 6.18164 16.25 6.875 16.25C7.56836 16.25 8.125 16.8066 8.125 17.5C8.125 18.1934 7.57031 18.75 6.875 18.75ZM11.25 2.5V15H2.5V2.5H11.25Z" fill="#B7B4A4"/>
<path d="M29.3385 11H19.4122C18.4897 11 18.0289 12.1633 18.6795 12.8406L23.6407 18.1844C23.8435 18.3956 24.1084 18.5011 24.3731 18.5011C24.6377 18.5011 24.9015 18.3956 25.1025 18.1844L30.0713 12.8399C30.7218 12.1641 30.2612 11 29.3385 11Z" fill="#B7B4A4"/>
</svg>
