<svg width="31" height="20" viewBox="0 0 31 20" fill="none" xmlns="http://www.w3.org/2000/svg">
<path d="M11.25 0H2.5C1.11914 0 0 1.11914 0 2.5V17.5C0 18.8809 1.11914 20 2.5 20H11.25C12.6309 20 13.75 18.8809 13.75 17.5V2.5C13.75 1.11914 12.6289 0 11.25 0ZM6.875 18.75C6.18164 18.75 5.625 18.1934 5.625 17.5C5.625 16.8066 6.18164 16.25 6.875 16.25C7.56836 16.25 8.125 16.8066 8.125 17.5C8.125 18.1934 7.57031 18.75 6.875 18.75ZM11.25 2.5V15H2.5V2.5H11.25Z" fill="#B7B4A4"/>
<path d="M19.4123 8.50105H29.3385C30.261 8.50105 30.7219 7.33777 30.0713 6.66043L25.11 1.31668C24.9073 1.10551 24.6424 1 24.3776 1C24.1131 1 23.8493 1.10551 23.6483 1.31668L18.6795 6.66121C18.0289 7.33699 18.4896 8.50105 19.4123 8.50105Z" fill="#B7B4A4"/>
</svg>
