<svg width="31" height="20" viewBox="0 0 31 20" fill="none" xmlns="http://www.w3.org/2000/svg">
<path d="M11.875 0H3.125C1.74414 0 0.625 1.11914 0.625 2.5V17.5C0.625 18.8809 1.74414 20 3.125 20H11.875C13.2559 20 14.375 18.8809 14.375 17.5V2.5C14.375 1.11914 13.2539 0 11.875 0ZM7.5 18.75C6.80664 18.75 6.25 18.1934 6.25 17.5C6.25 16.8066 6.80664 16.25 7.5 16.25C8.19336 16.25 8.75 16.8066 8.75 17.5C8.75 18.1934 8.19531 18.75 7.5 18.75ZM11.875 2.5V15H3.125V2.5H11.875Z" fill="#B7B4A4"/>
<path d="M20.0373 8.50105H29.9635C30.886 8.50105 31.3469 7.33777 30.6963 6.66043L25.735 1.31668C25.5323 1.10551 25.2674 1 25.0026 1C24.7381 1 24.4743 1.10551 24.2733 1.31668L19.3045 6.66121C18.6539 7.33699 19.1146 8.50105 20.0373 8.50105Z" fill="#B7B4A4"/>
<path d="M29.9635 11H20.0372C19.1147 11 18.6538 12.1633 19.3045 12.8406L24.2657 18.1844C24.4684 18.3956 24.7333 18.5011 24.9981 18.5011C25.2627 18.5011 25.5265 18.3956 25.7275 18.1844L30.6963 12.8399C31.3468 12.1641 30.8862 11 29.9635 11Z" fill="#B7B4A4"/>
</svg>
