<svg width="480" height="1170" viewBox="0 0 480 1170" fill="none" xmlns="http://www.w3.org/2000/svg">
<path d="M0 128V336C0 433.05 78.95 512 176 512H213.72C267.14 512 317.42 491.2 355.12 453.42L468.22 340.32C476.094 332.5 480 322.2 480 312C480 290.7 462.85 272 440 272C429.77 272 419.53 275.906 411.72 283.72L352 343.4V64C352 46.33 337.67 32 320 32C302.33 32 288 46.33 288 64L287.927 240C287.9 248.8 280.8 256 272 256C263.2 256 255.93 248.836 255.93 240L256 32C256 14.33 241.67 0 224 0C206.33 0 192 14.33 192 32L191.952 240C191.952 248.836 184.841 256 176.002 256C167.163 256 160 248.8 160 240V64C160 46.33 145.67 32 128 32C110.33 32 96 46.33 96 64L95.9271 240C95.9271 248.836 88.8361 256 79.9971 256C71.1581 256 64 248.8 64 240V128C64 110.33 49.67 96 32 96C14.33 96 0 110.3 0 128Z" fill="#B7B4A4"/>
<path d="M463.999 978C463.999 995.7 450.599 1010 432.899 1010H126.199L231.599 1115.4C244.099 1127.9 244.099 1148.15 231.599 1160.65C225.299 1166.9 217.099 1170 208.899 1170C200.699 1170 192.519 1166.88 186.279 1160.62L26.2793 1000.62C13.7793 988.125 13.7793 967.875 26.2793 955.375L186.279 795.375C198.779 782.875 219.029 782.875 231.529 795.375C244.029 807.875 244.029 828.125 231.529 840.625L126.199 946H432.899C450.599 946 463.999 960.3 463.999 978Z" fill="#B7B4A4"/>
</svg>
