<svg width="512" height="1083" viewBox="0 0 512 1083" fill="none" xmlns="http://www.w3.org/2000/svg">
<path d="M9.38351 976.605L105.384 1072.61C111.584 1078.91 119.784 1082.01 127.984 1082.01C136.184 1082.01 144.364 1078.88 150.604 1072.63C163.104 1060.13 163.104 1039.88 150.604 1027.38L109.184 986.005H402.684L361.304 1027.39C348.804 1039.89 348.804 1060.14 361.304 1072.64C367.584 1078.91 375.784 1082.01 383.984 1082.01C392.184 1082.01 400.364 1078.88 406.604 1072.63L502.604 976.63C515.104 964.13 515.104 943.88 502.604 931.38L406.604 835.38C394.104 822.88 373.854 822.88 361.354 835.38C348.854 847.88 348.854 868.13 361.354 880.63L402.684 922.005H109.184L150.564 880.625C163.064 868.125 163.064 847.875 150.564 835.375C138.064 822.875 117.814 822.875 105.314 835.375L9.31351 931.375C-3.11649 943.905 -3.11649 964.105 9.38351 976.605Z" fill="#B7B4A4"/>
<path d="M15.9785 128V336C15.9785 433.05 94.9285 512 191.979 512H229.699C283.119 512 333.399 491.2 371.099 453.42L484.199 340.32C492.073 332.5 495.979 322.2 495.979 312C495.979 290.7 478.829 272 455.979 272C445.749 272 435.509 275.906 427.699 283.72L367.979 343.4V64C367.979 46.33 353.649 32 335.979 32C318.309 32 303.979 46.33 303.979 64L303.906 240C303.879 248.8 296.779 256 287.979 256C279.179 256 271.909 248.836 271.909 240L271.979 32C271.979 14.33 257.649 0 239.979 0C222.309 0 207.979 14.33 207.979 32L207.93 240C207.93 248.836 200.819 256 191.98 256C183.141 256 175.979 248.8 175.979 240V64C175.979 46.33 161.649 32 143.979 32C126.309 32 111.979 46.33 111.979 64L111.906 240C111.906 248.836 104.815 256 95.9756 256C87.1366 256 79.9785 248.8 79.9785 240V128C79.9785 110.33 65.6485 96 47.9785 96C30.3085 96 15.9785 110.3 15.9785 128Z" fill="#B7B4A4"/>
</svg>
