<svg width="480" height="1170" viewBox="0 0 480 1170" fill="none" xmlns="http://www.w3.org/2000/svg">
<path d="M0 128V336C0 433.05 78.95 512 176 512H213.72C267.14 512 317.42 491.2 355.12 453.42L468.22 340.32C476.094 332.5 480 322.2 480 312C480 290.7 462.85 272 440 272C429.77 272 419.53 275.906 411.72 283.72L352 343.4V64C352 46.33 337.67 32 320 32C302.33 32 288 46.33 288 64L287.927 240C287.9 248.8 280.8 256 272 256C263.2 256 255.93 248.836 255.93 240L256 32C256 14.33 241.67 0 224 0C206.33 0 192 14.33 192 32L191.952 240C191.952 248.836 184.841 256 176.002 256C167.163 256 160 248.8 160 240V64C160 46.33 145.67 32 128 32C110.33 32 96 46.33 96 64L95.9271 240C95.9271 248.836 88.8361 256 79.9971 256C71.1581 256 64 248.8 64 240V128C64 110.33 49.67 96 32 96C14.33 96 0 110.3 0 128Z" fill="#B7B4A4"/>
<path d="M16.905 978C16.905 995.7 30.305 1010 48.005 1010H354.705L249.305 1115.4C236.805 1127.9 236.805 1148.15 249.305 1160.65C255.605 1166.9 263.805 1170 272.005 1170C280.205 1170 288.385 1166.88 294.625 1160.62L454.625 1000.62C467.125 988.125 467.125 967.875 454.625 955.375L294.625 795.375C282.125 782.875 261.875 782.875 249.375 795.375C236.875 807.875 236.875 828.125 249.375 840.625L354.705 946H48.005C30.305 946 16.905 960.3 16.905 978Z" fill="#B7B4A4"/>
</svg>
